<svg xmlns="http://www.w3.org/2000/svg" xmlns:xlink="http://www.w3.org/1999/xlink" viewBox="0 0 412 200"><defs><style>.cls-1{opacity:0.9;fill:url(#linear-gradient);}.cls-2{fill:url(#linear-gradient-2);}.cls-3{fill:#fff;}.cls-24,.cls-4{fill:#9bc1f9;}.cls-4{opacity:0.29;}.cls-5{fill:#256653;}.cls-6{fill:#3c8f7c;}.cls-7{fill:#327f6b;}.cls-8{fill:#50bfa5;}.cls-9{fill:#96d9c9;}.cls-10{fill:#f8a492;}.cls-11{fill:#355389;}.cls-12{fill:#fe875e;}.cls-13{fill:#13375b;}.cls-14{fill:#f7cc7f;}.cls-15{fill:#f48c7f;}.cls-16{fill:#f7a491;}.cls-17{fill:#466eb6;}.cls-18{fill:#f47458;}.cls-19{fill:#dd513a;}.cls-20{fill:#e0973f;}.cls-21{fill:#0e2e35;}.cls-22{fill:#184655;}.cls-23{fill:#6a97ce;}</style><linearGradient id="linear-gradient" x1="359" y1="-53" x2="53" y2="253" gradientUnits="userSpaceOnUse"><stop offset="0" stop-color="#1d59f4"/><stop offset="0.18" stop-color="#2d65ee"/><stop offset="0.36" stop-color="#3864f3"/><stop offset="0.98" stop-color="#00ddfc"/></linearGradient><linearGradient id="linear-gradient-2" x1="203.34" y1="202.78" x2="203.34" y2="53.1" xlink:href="#linear-gradient"/></defs><g id="Layer_3" data-name="Layer 3"><rect class="cls-1" width="412" height="200"/></g><g id="Layer_1" data-name="Layer 1"><rect class="cls-2" x="135.33" y="55.02" width="136.02" height="136.02" rx="22.57"/><path class="cls-3" d="M157,100.67a112.08,112.08,0,0,1,16.12-1c9.66,0,15.57,1.43,20.61,4.62,5.37,3.41,9.11,9,9.11,17.35,0,9.52-3.94,15.3-8.43,18.7-5.65,4.28-14.15,6.12-23.81,6.12a87.86,87.86,0,0,1-13.6-.82Zm12.86,35.77a19.93,19.93,0,0,0,3,.14c9.38.13,16.25-4.29,16.25-14.28,0-9.12-6.46-12.92-14.76-12.92a23.16,23.16,0,0,0-4.48.34Z"/><path class="cls-3" d="M229.71,99.24c-15,0-25.09,10.14-25.09,24.14,0,13.2,9.18,23.33,24.28,23.33,15.77,0,25.5-10.13,25.5-24C254.4,109.24,245.22,99.24,229.71,99.24Zm-.3,29.46a5.67,5.67,0,1,1,5.67-5.67A5.66,5.66,0,0,1,229.41,128.7Z"/></g><g id="Layer_2" data-name="Layer 2"><path class="cls-4" d="M88.15,190.62H331.29c20.16-16.81,9.78-67.4-7.05-77.65-18.12-11,10.65-49.22-17.26-61.61-18.22-8.09-47.21.73-43.31-20.92C269.08.43,205.88-7.27,159.33.83,109,9.57,155,52.58,99.61,61.25c-28.47,4.45-23,42.58-20.31,50.45,2.31,6.87,17.6,17.75-3.65,32.74C44.48,166.41,87.41,190.22,88.15,190.62Z"/><path class="cls-5" d="M304.12,62.22s-4,8.67-6.66,12.33-5.23,7.16-7.36,17.32-1.77,11.18-2.36,13.8-4.39,13.26-4.41,15.21-7.7,13.05-9.66,18.24-5.45,12.61-5.25,16.39l.87-.22a40.73,40.73,0,0,1,6.78-17.71c6.06-8.9,5.2-10.58,12.08-15.16s11.34-17.2,11.34-17.2,7-13.72,6.68-20.85S307.7,70.8,304.12,62.22Z"/><path class="cls-5" d="M294.8,48.9s-.23,5.69-2.07,9.07-3.41,5.43-3.75,9.09-1.48,13.09-6.6,17.7-5.78,18.4-9.68,22.57-4.4,7.18-3.68,14.34,3.16,17.07-2.49,30l-1.28-3.22s4.05-10.65,3.07-16.89-4.39-15.66-3.14-20.18-3.39-5.4-.6-12.24S266.22,90,270,84c0,0,.39-.28,1.39-5.28s9.05-14.17,12.76-17.3S293.25,53.32,294.8,48.9Z"/><path class="cls-6" d="M279.68,77.08s-4.45,7.61-4.51,12.51.47,8.89-1.78,15.6,2.21,11,.92,14.65-1.38,8.09-1.34,11.42-5.1,14.33-5.88,19.91.22,5.59.22,5.59.85-7.36,2-9.79A124.94,124.94,0,0,0,275,132.9c.84-3.25,3.11-5.33,5.08-10.83s4.75-10.12,4.53-17.92S287.49,88.12,279.68,77.08Z"/><path class="cls-6" d="M270.26,151.65S272.34,142,281.08,141s13.88.77,20.06-6.29,9.76-18.26,11.73-20.19c0,0-3.1-1.59-8.26,3.23s-8.78,8.48-11.77,11.29-5.41,1-8.57,2.83c-2.64,1.55-6.06,6-7.56,8.38a10.23,10.23,0,0,1-1.74,2.08c-.6.56-1.32,1.25-1.79,1.75-.92,1-3.59,7.58-3.59,7.58Z"/><path class="cls-6" d="M267.18,149.94s3.08-11.81,1-17.59-8.53-10.06-8.27-13.69,4.41-13.45,1-20.76c0,0-1.28,6.52-2.55,8s-10,7.3-8.43,15,10,9.53,12.09,11.8S267,135,267,136.48a57.86,57.86,0,0,1-.37,12.43Z"/><path class="cls-7" d="M270.55,142l4.33-12.47s2.54-10,4-18.39.78-34.1.78-34.1-4.45,7.61-4.51,12.51.47,8.89-1.78,15.6,2.21,11,.92,14.65-1.38,8.09-1.34,11.42-5.1,14.33-5.88,19.91c-.42,3.05-.32,4.43-.13,5.06C266.26,151.36,270.55,142,270.55,142Z"/><path class="cls-7" d="M291.87,134.61c-3.86.77-7.31.51-11.89,3.92a38,38,0,0,0-7.28,7.06s-2.07,3.68-2.92,5.62l-.19.47.67,0S272.34,142,281.08,141s13.88.77,20.06-6.29,9.76-18.26,11.73-20.19a97.79,97.79,0,0,0-10.62,9.64C298.19,128.7,295.74,133.84,291.87,134.61Z"/><path class="cls-7" d="M258.41,105.87c-1.27,1.45-10,7.3-8.43,15s10,9.53,12.09,11.8S267,135,267,136.48a57.86,57.86,0,0,1-.37,12.43l.25.45a69.1,69.1,0,0,0,1.3-7.79c.33-4-.31-5.62-1.59-8.84s-9.22-9.78-11.21-13.23,3.84-9.21,5.13-12,.47-9.61.47-9.61S259.68,104.42,258.41,105.87Z"/><path class="cls-8" d="M279.05,144.24l1.36-3.29a4.63,4.63,0,0,1,6-2.57h0c5.74,2.5,8.23,9.46,5.57,15.55l-1.94,4.45a5.59,5.59,0,0,0,.59,5.61,5,5,0,0,1,.49,4.94l-1,2.34a9.29,9.29,0,0,1-5.82,5.2,5.65,5.65,0,0,0-3.52,3.18L279.32,183a7,7,0,0,1-9.16,3.92l-2-.86a7.06,7.06,0,0,1-3.35-9.39h0c2.59-4.39,2.38-7.67,1.46-9.89a13.31,13.31,0,0,1,.13-10.38l.2-.47a13.26,13.26,0,0,1,8.07-7.3A7.23,7.23,0,0,0,279.05,144.24Z"/><path class="cls-9" d="M254.58,190.62c2.78-3.6,18-22.92,28-26.14,11-3.55.63,10.56.63,10.56s19.48-21.29,26.62-19.37c6.55,1.76,0,15,0,15s7.38-7.31,16.33-7.31c8.7,0-6.09,25.92-6.89,27.3Z"/><path class="cls-6" d="M313.26,148.83a128.24,128.24,0,0,0-17.08,40.9l-.55-.15a129,129,0,0,1,17-40.55c1.84-2.88,3.84-6.3,7.29-7.43a.05.05,0,0,1,0,.1C316.81,142.89,315,146.14,313.26,148.83Z"/><path class="cls-6" d="M298.09,190.24a160.24,160.24,0,0,1,32.56-33c.12-.1.3.13.17.22a160.16,160.16,0,0,0-32.05,32.94Z"/><path class="cls-6" d="M314,141.13a5.66,5.66,0,0,1,1.21,2.12,4.31,4.31,0,0,1,0,2.16,4.71,4.71,0,0,0,1.21-2.09,4.6,4.6,0,0,0-.37-3.55c-.84-1.3-2.3-1.43-2.59-.8A2.51,2.51,0,0,0,314,141.13Z"/><path class="cls-6" d="M315.89,152.22a5.7,5.7,0,0,0-2.1-1.26,4.3,4.3,0,0,0-2.16-.08,4.8,4.8,0,0,1,2.12-1.17,4.59,4.59,0,0,1,3.54.44c1.28.86,1.38,2.33.75,2.6S316.57,152.64,315.89,152.22Z"/><path class="cls-6" d="M313,157.08a5.7,5.7,0,0,0-2.1-1.26,4.3,4.3,0,0,0-2.16-.08,4.8,4.8,0,0,1,2.12-1.17,4.6,4.6,0,0,1,3.54.44c1.27.86,1.38,2.33.74,2.61S313.69,157.51,313,157.08Z"/><path class="cls-6" d="M323.26,168.35a5.64,5.64,0,0,0-2.09-1.26A4.56,4.56,0,0,0,319,167a4.88,4.88,0,0,1,5.65-.73c1.28.87,1.38,2.34.75,2.61S323.94,168.78,323.26,168.35Z"/><path class="cls-6" d="M328.5,163.74a5.7,5.7,0,0,0-2.1-1.26,4.3,4.3,0,0,0-2.16-.08,4.8,4.8,0,0,1,2.12-1.17,4.69,4.69,0,0,1,3.54.44c1.27.87,1.38,2.34.74,2.61S329.17,164.17,328.5,163.74Z"/><path class="cls-6" d="M310,146.63a5.63,5.63,0,0,1,1.53,1.9,4.28,4.28,0,0,1,.38,2.13,4.76,4.76,0,0,0,.87-2.26,4.59,4.59,0,0,0-.93-3.44c-1-1.15-2.5-1.05-2.68-.38S309.45,146,310,146.63Z"/><path class="cls-6" d="M305.74,152.14A4.89,4.89,0,0,1,308,153.6a3.73,3.73,0,0,1,.75,2.21,6.13,6.13,0,0,0,.85-2.89c.09-1.52-.82-3.14-1.62-3.44-1.47-.84-3.36-.09-3.52.73S305,151.68,305.74,152.14Z"/><path class="cls-6" d="M301.3,160.49a4.89,4.89,0,0,1,2.43,1.07,3.64,3.64,0,0,1,1.11,2.05,6.1,6.1,0,0,0,.35-3c-.17-1.52-1.33-3-2.17-3.13-1.6-.57-3.33.48-3.35,1.31S300.49,160.16,301.3,160.49Z"/><path class="cls-6" d="M314.45,166.31a4,4,0,0,1,1.73,1.31,3.09,3.09,0,0,1,.48,1.84,5.06,5.06,0,0,0,.85-2.3,3.12,3.12,0,0,0-1.12-2.9c-1.15-.76-2.73-.26-2.9.4S313.88,165.89,314.45,166.31Z"/><path class="cls-6" d="M321.3,143.08a3.5,3.5,0,0,0-1.18-.83,2.59,2.59,0,0,0-1.28-.15,2.9,2.9,0,0,1,1.3-.6,2.75,2.75,0,0,1,2.08.42c.72.57.71,1.44.33,1.57S321.68,143.36,321.3,143.08Z"/><path class="cls-6" d="M319.71,139.53a3.51,3.51,0,0,1-.06,1.45,2.64,2.64,0,0,1-.67,1.1,2.82,2.82,0,0,0,1.27-.67,2.74,2.74,0,0,0,.94-1.89c0-.92-.71-1.45-1.05-1.22S319.72,139.06,319.71,139.53Z"/><path class="cls-6" d="M332.27,159.05a3.33,3.33,0,0,0-1.19-.84,2.49,2.49,0,0,0-1.27-.14,2.68,2.68,0,0,1,1.3-.6,2.73,2.73,0,0,1,2.07.41c.72.57.72,1.44.33,1.58S332.65,159.33,332.27,159.05Z"/><path class="cls-6" d="M330.34,155.47a3.3,3.3,0,0,1,.06,1.45,2.5,2.5,0,0,1-.57,1.14,2.86,2.86,0,0,0,2-2.73c-.09-.91-.82-1.38-1.15-1.13S330.31,155,330.34,155.47Z"/><path class="cls-6" d="M329,178.59c-8.12.89-15.69,4.48-23,8-4.91,2.35-4.66,3-5.67,3.38a.2.2,0,0,1-.24-.28,5.35,5.35,0,0,1,2.1-1.71,27,27,0,0,1,2.53-1.39c1.86-.9,3.76-1.71,5.65-2.53a81.32,81.32,0,0,1,11.81-4.3,40.09,40.09,0,0,1,6.79-1.21s0,.06,0,.06Z"/><path class="cls-6" d="M321.68,176.07a5.38,5.38,0,0,1,.19,2.26,4.15,4.15,0,0,1-.82,1.83,4.33,4.33,0,0,0,1.83-1.28,4.29,4.29,0,0,0,1.1-3.12c-.2-1.41-1.37-2.1-1.86-1.69A2.34,2.34,0,0,0,321.68,176.07Z"/><path class="cls-6" d="M314.52,178.64a5.15,5.15,0,0,1,.19,2.25,4.09,4.09,0,0,1-.82,1.83,4.43,4.43,0,0,0,1.84-1.27,4.3,4.3,0,0,0,1.09-3.12c-.19-1.42-1.37-2.11-1.86-1.7A2.36,2.36,0,0,0,314.52,178.64Z"/><path class="cls-6" d="M307.25,181.88a5.34,5.34,0,0,1,.19,2.26,4.08,4.08,0,0,1-.82,1.82,4.48,4.48,0,0,0,2.93-4.39c-.2-1.42-1.37-2.11-1.86-1.69S307.18,181.14,307.25,181.88Z"/><path class="cls-6" d="M323.82,182.76a4.9,4.9,0,0,0-1.13-1.77,3.62,3.62,0,0,0-1.62-.88,4.14,4.14,0,0,1,4.61,1.6c.65,1.15.17,2.32-.42,2.28S324.17,183.35,323.82,182.76Z"/><path class="cls-6" d="M316.37,185.4a4.68,4.68,0,0,0-1.12-1.77,3.8,3.8,0,0,0-1.62-.89,4.06,4.06,0,0,1,2.06-.08,3.92,3.92,0,0,1,2.55,1.69c.65,1.15.16,2.31-.43,2.28S316.73,186,316.37,185.4Z"/><path class="cls-6" d="M329.49,180.05a3.12,3.12,0,0,0-.94-1,2.45,2.45,0,0,0-1.14-.35,2.63,2.63,0,0,1,1.29-.32,2.54,2.54,0,0,1,1.82.72c.56.64.41,1.44,0,1.49S329.79,180.37,329.49,180.05Z"/><path class="cls-6" d="M328.63,176.55a3.14,3.14,0,0,1-.3,1.31,2.44,2.44,0,0,1-.79.89,2.78,2.78,0,0,0,1.27-.4,2.56,2.56,0,0,0,1.17-1.57c.14-.83-.4-1.43-.75-1.29S328.72,176.12,328.63,176.55Z"/><path class="cls-6" d="M119.4,128.92c-9.55-8.51-14.46-20.73-16.89-29.49a87.65,87.65,0,0,1-3-17.16l-.52,0A88.93,88.93,0,0,0,102,99.52c2.46,8.84,7.42,21.19,17.08,29.81Z"/><path class="cls-6" d="M100.56,80.06a7.46,7.46,0,0,1-.93,5.75,8.75,8.75,0,0,1-3.28-5.2,7.51,7.51,0,0,1,.93-5.75A8.81,8.81,0,0,1,100.56,80.06Z"/><path class="cls-6" d="M97.63,86.3a8.76,8.76,0,0,1,2.8,5.47A7.62,7.62,0,0,1,95,89.59a8.7,8.7,0,0,1-2.79-5.47A7.57,7.57,0,0,1,97.63,86.3Z"/><path class="cls-6" d="M96.86,92.85a8.33,8.33,0,0,1,4.71,3.79,6.5,6.5,0,0,1-5.51.58,8.36,8.36,0,0,1-4.71-3.79A6.5,6.5,0,0,1,96.86,92.85Z"/><path class="cls-6" d="M100,100.72a6.17,6.17,0,0,1,3.65,3.47,4.65,4.65,0,0,1-4.46.91,6.12,6.12,0,0,1-3.64-3.47A4.63,4.63,0,0,1,100,100.72Z"/><path class="cls-6" d="M102.77,89.48a5.61,5.61,0,0,1,4.6-1.65,6.3,6.3,0,0,1-1.78,4.76,5.6,5.6,0,0,1-4.6,1.65A6.28,6.28,0,0,1,102.77,89.48Z"/><path class="cls-6" d="M104.25,95.13a5.6,5.6,0,0,1,4.6-1.66,6.28,6.28,0,0,1-1.78,4.76,5.62,5.62,0,0,1-4.6,1.66A6.28,6.28,0,0,1,104.25,95.13Z"/><path class="cls-8" d="M113.65,140.47c-8.82-1.29-16.36-6.51-21.14-10.66A61.57,61.57,0,0,1,84.16,121l-.31.18a60.72,60.72,0,0,0,8.4,8.88c4.83,4.2,12.45,9.47,21.37,10.77Z"/><path class="cls-8" d="M84,119.29a5.25,5.25,0,0,1,1.66,3.7,6.12,6.12,0,0,1-3.9-1.76,5.26,5.26,0,0,1-1.67-3.7A6.14,6.14,0,0,1,84,119.29Z"/><path class="cls-8" d="M84.64,124a6.12,6.12,0,0,1,3.72,2.11,5.3,5.3,0,0,1-4,.82,6.12,6.12,0,0,1-3.72-2.11A5.3,5.3,0,0,1,84.64,124Z"/><path class="cls-8" d="M86.7,128.14a5.88,5.88,0,0,1,4.2.4,4.59,4.59,0,0,1-3,2.46,5.85,5.85,0,0,1-4.19-.4A4.57,4.57,0,0,1,86.7,128.14Z"/><path class="cls-8" d="M91.55,131.51a4.29,4.29,0,0,1,3.45.62,3.24,3.24,0,0,1-2.24,2.24,4.29,4.29,0,0,1-3.45-.62A3.26,3.26,0,0,1,91.55,131.51Z"/><path class="cls-8" d="M88.85,123.92a3.9,3.9,0,0,1,2-2.73,4.41,4.41,0,0,1,.8,3.46,3.89,3.89,0,0,1-2,2.72A4.35,4.35,0,0,1,88.85,123.92Z"/><path class="cls-8" d="M91.87,126.63a3.89,3.89,0,0,1,2-2.72,4.39,4.39,0,0,1,.79,3.45,3.89,3.89,0,0,1-2,2.72A4.38,4.38,0,0,1,91.87,126.63Z"/><path class="cls-9" d="M119,166.85c-10.16,3.86-21.36,1.82-29-.57a71.74,71.74,0,0,1-14.22-6.19l-.23.43a72.42,72.42,0,0,0,14.32,6.24c7.68,2.41,19,4.47,29.28.56Z"/><path class="cls-9" d="M74.52,158a7.37,7.37,0,0,1,4,3.74,6.35,6.35,0,0,1-5.23.16,7.34,7.34,0,0,1-4-3.74A6.39,6.39,0,0,1,74.52,158Z"/><path class="cls-9" d="M78.12,163.75a6.47,6.47,0,0,1,5.24.4,6.2,6.2,0,0,1-3.76,3.56,6.47,6.47,0,0,1-5.24-.4A6.23,6.23,0,0,1,78.12,163.75Z"/><path class="cls-9" d="M82.8,167.77a6.19,6.19,0,0,1,4.71-2.12,6.77,6.77,0,0,1-1.7,5.06,6.16,6.16,0,0,1-4.7,2.11A6.73,6.73,0,0,1,82.8,167.77Z"/><path class="cls-9" d="M89.34,169.85a6.16,6.16,0,0,1,4.71-2.12,6.73,6.73,0,0,1-1.69,5.05,6.19,6.19,0,0,1-4.71,2.12A6.73,6.73,0,0,1,89.34,169.85Z"/><path class="cls-9" d="M83.18,163.14a7.22,7.22,0,0,1-1.5-4.84,6.25,6.25,0,0,1,4.12,2.5,7.16,7.16,0,0,1,1.51,4.84A6.31,6.31,0,0,1,83.18,163.14Z"/><path class="cls-9" d="M90,165.26a7.23,7.23,0,0,1-1.58-4.81,6.19,6.19,0,0,1,4.16,2.43,7.26,7.26,0,0,1,1.58,4.82A6.24,6.24,0,0,1,90,165.26Z"/><path class="cls-9" d="M97.94,170.41a2.56,2.56,0,0,1,1.6-1.51,2.9,2.9,0,0,1,.1,2.31,2.54,2.54,0,0,1-1.6,1.51A2.89,2.89,0,0,1,97.94,170.41Z"/><path class="cls-6" d="M140.78,189.88s12.95-51.24,8.66-56.39C143.5,126.38,138.6,150,138.12,148c-4.54-18.94-5.75-43.16-20.39-45.73-8.32-1.45,1.93,18,1.31,23.28s-15.61-12.22-24.73-21.38-13.82-3.36-8.06,8.16c5.57,11.14,23.58,23.31,19.87,24.76s-26.26-12.94-29-6.79c-3.38,7.53,30.43,17.8,27.25,19.49S85,145.88,85.44,151.65s22.17,5.55,21.8,8.09c-.6,4.1-15-5.19-15.6.49s18.9,4.75,18.56,9.28c-.19,2.61-4.39-1.32-5,2.29-1.41,8.22,24.36,18.25,24.36,18.25Z"/><path class="cls-8" d="M150.66,190.19s-12.33-18.9-18.27-22.47c-6.32-3.81-1.51,7.58-1.51,7.58S118,159.93,114.37,163.05s-.33,6.74-.33,6.74-11.6-3.43-13.68.82c-3.2,6.54,15.89,12,15.89,12s-8.2-.09-6.69,4.33C111.84,193.57,150.66,190.19,150.66,190.19Z"/><path class="cls-9" d="M100.36,170.61c2.08-4.25,13.68-.82,13.68-.82s-3.26-3.61.33-6.74,13.93,6.23,13.93,6.23-1.08-7.71,6.7-.92c5.56,4.85,15.66,21.83,15.66,21.83Z"/><path class="cls-9" d="M135.69,142.73l.55-.38c-10-15.21-13.1-33.25-13.9-45.72A122.13,122.13,0,0,1,123,73l-.68-.2a121.68,121.68,0,0,0-.69,23.83C122.45,109.15,125.54,127.36,135.69,142.73Z"/><path class="cls-9" d="M125,70.58a9.3,9.3,0,0,1-2.73,7.09,13.56,13.56,0,0,1-2.84-8.18,9.32,9.32,0,0,1,2.73-7.1A13.61,13.61,0,0,1,125,70.58Z"/><path class="cls-9" d="M119.55,77.45a13.35,13.35,0,0,1,2.14,8.33,11.78,11.78,0,0,1-6.43-5.18,13.27,13.27,0,0,1-2.13-8.33A11.8,11.8,0,0,1,119.55,77.45Z"/><path class="cls-9" d="M116.81,85.65a13.36,13.36,0,0,1,5.06,7A8.76,8.76,0,0,1,114.6,91a13.39,13.39,0,0,1-5.06-7A8.76,8.76,0,0,1,116.81,85.65Z"/><path class="cls-9" d="M120,100a5.57,5.57,0,0,1,2.31,2.77,3.59,3.59,0,0,1-3.07-.43A5.63,5.63,0,0,1,117,99.53,3.59,3.59,0,0,1,120,100Z"/><path class="cls-9" d="M120.89,105.27A5.56,5.56,0,0,1,123.2,108a3.56,3.56,0,0,1-3.06-.43,5.56,5.56,0,0,1-2.31-2.77A3.56,3.56,0,0,1,120.89,105.27Z"/><path class="cls-9" d="M125.33,83.8a7,7,0,0,1,6.36-.18,7.39,7.39,0,0,1-3.57,5.44,6.93,6.93,0,0,1-6.36.18A7.36,7.36,0,0,1,125.33,83.8Z"/><path class="cls-9" d="M125.72,91.79a7,7,0,0,1,6.37-.18,7.42,7.42,0,0,1-3.57,5.44,6.93,6.93,0,0,1-6.36.18A7.38,7.38,0,0,1,125.72,91.79Z"/><path class="cls-9" d="M125.33,103.23a4.49,4.49,0,0,1,4.14-.12,4.8,4.8,0,0,1-2.32,3.54,4.52,4.52,0,0,1-4.14.12A4.8,4.8,0,0,1,125.33,103.23Z"/><path class="cls-10" d="M267,148.31a2.59,2.59,0,0,1,1.25.4,22.57,22.57,0,0,0,2.28-1l6.56-3.25,4.49-5.66,3.47,1.6s-5.06,6-5.38,6.28-9.25,3.39-10,3.69c0,0-.79.72-1.29,1.15a5.57,5.57,0,0,1-1.35.7,5.24,5.24,0,0,1-1.37.48c-.68.15-.11-.31-.11-.31s1.2-.51,1.14-.6-.68.25-1.44.42l-.55.12c-.47.1-.67-.16-.21-.34a3.81,3.81,0,0,1,.65-.21,4,4,0,0,0,.59-.24,4.84,4.84,0,0,0,.61-.24s0-.09-.18-.05-.74.27-1.12.31c-.21,0-.64.1-.64.1s-.78.08-.78,0,.46-.37.75-.37a3.38,3.38,0,0,1,.65-.16s.9-.35.84-.48a5.24,5.24,0,0,0-1.13.06c-.61,0-1.05,0-1.09-.07s.44-.26.44-.26l.56-.09.65-.19s1.65-.61,1.59-.73-.33-.38-.45-.37-.32.11-.44.11-.37,0-.38-.17.62-.44.62-.44A1.88,1.88,0,0,1,267,148.31Z"/><path class="cls-11" d="M278.43,142.27s1.13,1,1.59,1.36,2.28,1.19,2.28,1.19,1.88-2.88,2.7-4.33c1-1.75,1.69-4.35,1.45-4.42a3.46,3.46,0,0,0-2.41.06C281.13,137.47,278.43,142.27,278.43,142.27Z"/><path class="cls-12" d="M268.07,149.82a1.09,1.09,0,0,1-1.23-.48C266.79,149.88,267.61,150.15,268.07,149.82Z"/><path class="cls-13" d="M128.7,129.62a10.26,10.26,0,0,0-.92-4.89,4.14,4.14,0,0,0-3.69-2.1c-4.6,0-5.18,6.1-8.12,8.45-.89.72-1.89,1.31-2.74,2.09-3.13,2.86-1.72,8.17,1.15,10.69,2,1.74,5.13,2.73,7.59,1.37a7.83,7.83,0,0,0,3-3.19,44.45,44.45,0,0,0,2.32-5.93A22.24,22.24,0,0,0,128.7,129.62Z"/><path class="cls-14" d="M129.45,137.74c-1.44-4.36-3.33-4.29-3.33-4.29l1.53,9.29c.89-.25,2-.79,2.93-1A37.72,37.72,0,0,0,129.45,137.74Z"/><path class="cls-15" d="M136.72,152.62l-5.26-4s-.53-3.74-1.24-7.06c-.88.25-1.68.94-2.57,1.19l1.34,7.43,6.89,3.56,1.94,2.5.44-2.57Z"/><path class="cls-16" d="M114.31,183.59a9.6,9.6,0,0,1-.88,3,6.27,6.27,0,0,0-.76,1,3,3,0,0,0,.1,2.27c.14.29,0,.29.3.38a1.85,1.85,0,0,0,2.22-1,5.24,5.24,0,0,0,.43-1.92,7.05,7.05,0,0,1,.73-3.09Z"/><path class="cls-16" d="M124.07,184.62a21.6,21.6,0,0,1,0,3.37c-.09.44-.57,1.35-.35,1.77a1.07,1.07,0,0,0,.48.52l5.76.09c.31,0,.1-.19-.15-.38a11.75,11.75,0,0,0-2.07-1.15c-.09,0-.4-.24-.51-.31a4,4,0,0,1-.83-.73c-.41-.46-.45-2.7-.45-2.7Z"/><path class="cls-11" d="M128.57,150.83a24.68,24.68,0,0,1,.25,6.83c-.47,2.71-2.76,27.79-2.76,27.79l-2.54.15s-.53-10.48-.44-11.94a23.11,23.11,0,0,1,.85-3.9l-.25-8.46,3.21-11.11Z"/><path class="cls-17" d="M121.11,150a18.73,18.73,0,0,0-2.48,5.51c-.48,2.5.35,10.18-.57,13.45-.49,1.78-2.37,4.51-2.66,6.8S114,184,114,184l2.54.51,5.91-15L127.07,156l1.18-7Z"/><path class="cls-14" d="M122.73,132.78s-2.65-.17-3.7,1,2.32,10.2,2.51,11.66-1,5.33-1,5.33,6.23,1.26,8,.08c0,0,.2-10.48,0-11.52a29.77,29.77,0,0,0-2.16-5.69C126,133.2,122.73,132.78,122.73,132.78Z"/><path class="cls-16" d="M123.61,129.23s0,.08,0,.22a20.16,20.16,0,0,1-.88,3.33c-.37.71,1.27,2.95,2.85,2.68.47-.08-.4-2.06-.35-2.27.08-.41.18-.95.29-1.51.07-.32.13-.64.19-.94l.31-1.56Z"/><path class="cls-18" d="M123.57,129.45c0-.14,0-.22,0-.22l2.37,0-.31,1.56q-.09.45-.18.93a2.19,2.19,0,0,1-1.14-.57,3,3,0,0,1-.85-1.28C123.53,129.67,123.55,129.54,123.57,129.45Z"/><path class="cls-16" d="M125.2,123.84a2.13,2.13,0,0,0-1.81.77c-.7.91-1.46,3.72.28,5.24s3.46-.2,3.71-2S127.74,123.77,125.2,123.84Z"/><path class="cls-16" d="M127.9,127.79c-.21.41-.56.63-.78.5s-.24-.56,0-1,.56-.63.78-.5S128.1,127.39,127.9,127.79Z"/><path class="cls-13" d="M125.33,123.54s-1.49,2.67-2.56,2.79-1.21,1.54-1.21,1.54.38-3.27,1.44-3.9A3.9,3.9,0,0,1,125.33,123.54Z"/><path class="cls-18" d="M115.46,188.73a2.84,2.84,0,0,1-2.78-1.17,3,3,0,0,0-.27,2.28c.23.5.9.49,1.42.5a1.34,1.34,0,0,0,1.26-.77A4.47,4.47,0,0,0,115.46,188.73Z"/><path class="cls-18" d="M127.26,188.53a5.18,5.18,0,0,1-3.28-.13,2.73,2.73,0,0,0-.26,1.38c.14.4.34.5.52.5,1.39,0,5.09.09,6.16.1a.17.17,0,0,0,.13-.28A26.59,26.59,0,0,0,127.26,188.53Z"/><path class="cls-16" d="M123.05,127c.08.47-.09.91-.39,1s-.62-.27-.71-.75.09-.9.39-1S123,126.53,123.05,127Z"/><path class="cls-3" d="M124.79,128.64l1.35.06a.6.6,0,0,1-.65.5C124.77,129.19,124.79,128.64,124.79,128.64Z"/><path class="cls-19" d="M239.56,34.55c.17,0,.63.16,1.3,1.43A48,48,0,0,1,243,42.51l-3.75,1.39-.48-1L238,35S239.52,34.55,239.56,34.55Z"/><path class="cls-18" d="M234.61,33.85a22.78,22.78,0,0,1,4.95.7s.91,7.77-.81,13.67c-.38,1.32.32,5.47.32,5.47L228,53.55s1.32-10,.82-11.67-.5-7.27-.5-7.27l2.49-.43A24.65,24.65,0,0,1,234.61,33.85Z"/><path class="cls-16" d="M233.32,68.11a15.11,15.11,0,0,0,.7,3.62c.45.78,0,2.11-.05,2.3s-.95.44-2.42.28-1.45-.49-1.33-1,.9-1.26.95-1.78a13.56,13.56,0,0,0-.45-2.41Z"/><path class="cls-20" d="M237.82,51.36s7.66-.43,9.37.61S246,58.09,246,58.09s-5.33-.25-15.77.35c-2.47.15-2.68-6.44-2.22-7S237.82,51.36,237.82,51.36Z"/><path class="cls-19" d="M231.36,74.53c-1.51-.16-1.33-.9-1.2-1.47.07-.35.51-.77.77-1.16a2.65,2.65,0,0,0,1,.49,3.81,3.81,0,0,0,2.22-.45,7.4,7.4,0,0,1,.2,2A4.35,4.35,0,0,1,231.36,74.53Z"/><path class="cls-14" d="M232.2,56.84c.31,2.31,1.82,13.84,1.82,13.84l-3.51.44s-4.33-15.05-4.11-17.35,1.84-2.5,1.84-2.5S231.39,50.71,232.2,56.84Z"/><path class="cls-16" d="M228.16,35.47c1-.39,1.55,9,1.69,12.81a46.45,46.45,0,0,0,5.84-.06c.37,0,1.24-.35,1.61-.4a3.86,3.86,0,0,1,.92,0,17.59,17.59,0,0,1,2.14,1c.21.21.76.75.66,1s-1.05-.65-1.05-.65l-.47-.26c.58.57,1.7,1.33,1.54,1.6s-1.17-.5-1.89-1c.62.56,1.39,1.55,1.21,1.71s-1-1-2-1.35c-.35-.12-.69.22-1,.26a1.85,1.85,0,0,1-.7,0l-1-.28c-.35,0-.35.23-.7.3s-1.07.18-1.58.31c-2.95.72-3.94,1-4.84,1C225.87,51.44,225.71,36.39,228.16,35.47Z"/><path class="cls-19" d="M226.2,44.25c-.2-4-.17-8.8,2-9.63.87-.33,2.41,1.64,2.13,9.71A17.19,17.19,0,0,1,226.2,44.25Z"/><path class="cls-16" d="M243.6,70.53a1.92,1.92,0,0,0,.25,1.63c.54.66,2.83,1.29,3.13,1.65a1,1,0,0,1,.27.65l-6.4-.18.07-1.93.29-1.39Z"/><path class="cls-19" d="M244.24,72.49s-1.64.67-2.44.27-.77-.5-1-.36-.31,2-.31,2l7.2.21c.5,0,.76-.38.35-.7a5.75,5.75,0,0,0-.79-.47A22.71,22.71,0,0,0,244.24,72.49Z"/><path class="cls-14" d="M243.36,53.17a2.65,2.65,0,0,1,3.6-1.58c1.89.78,2.4,2.7,1.8,4.66s-4.52,13.49-4.65,15.07l-3.14,0s.57-9.13.71-11.33A21.2,21.2,0,0,1,243.36,53.17Z"/><path d="M248.45,42.55H238a.67.67,0,0,0-.63.43l-3.23,7.89h-5.77a.3.3,0,0,0-.3.3h0a.3.3,0,0,0,.3.29h16.44a1.14,1.14,0,0,0,1-.68l3.25-7.26A.69.69,0,0,0,248.45,42.55Z"/><path class="cls-3" d="M242.81,47.15a.58.58,0,1,1-1.12-.23.61.61,0,0,1,.69-.52A.62.62,0,0,1,242.81,47.15Z"/><path class="cls-21" d="M237.1,24.36a6.55,6.55,0,0,1-.92-.37,5.23,5.23,0,0,0-1.06-.4,2.52,2.52,0,0,0-2.14.58c-.69.75-1.92.13-1.67,4.06.28,4.44,2.75,3.95,2.81,3.88l2.2-2.84s.75,1.64.75,1.58S240.9,25.64,237.1,24.36Z"/><path class="cls-16" d="M235.23,32.44l.21,1.58s.48,2.29-.14,2.73S232.69,34,232.69,34l.21-4Z"/><path class="cls-18" d="M232.83,31.24a4.54,4.54,0,0,0,2.58,2.54l-.18-1.34-2.33-2.5Z"/><path class="cls-16" d="M235.1,25.56a2.12,2.12,0,0,1,2.44,2.14,15.12,15.12,0,0,1-.18,2c-.28,1.83-1.53,3.44-2.36,3.3a4,4,0,0,1-2.54-4.34A3.51,3.51,0,0,1,235.1,25.56Z"/><path class="cls-16" d="M233,29a.68.68,0,0,1-.72.62.68.68,0,0,1-.47-.83A.62.62,0,1,1,233,29Z"/><path class="cls-21" d="M232.57,28.18s1,.25,1.37-.39a3,3,0,0,1,3.38-1.46c1.69.58-1.48-1.4-1.62-1.4H234s-1.25,1-1.3,1.14-.4,1.34-.4,1.34Z"/><path class="cls-3" d="M234.39,30.87l1.82.34a.8.8,0,0,1-1,.56C234.26,31.61,234.39,30.87,234.39,30.87Z"/><path class="cls-10" d="M219.77,156.15a1.6,1.6,0,0,0,.17.43,17,17,0,0,0,1.67,2.22l.91-2s-.15-.64-.4-1.56A5.23,5.23,0,0,0,219.77,156.15Z"/><path class="cls-13" d="M225,154.39s-5,2.17-5.2,2.13a13.33,13.33,0,0,1-2.09-6.4c0-1.43,1.47-3.15,3.12-2.81.83.17.82.41,2.05,2.19A20.78,20.78,0,0,1,225,154.39Z"/><path class="cls-16" d="M229.25,193.3l-.12,2c0,.25-.22.88-.22,1.1,0,.86,4.08-.72,3.17-1.11-.09,0-.52-.29-.55-.58,0-.45-.15-1.36-.15-1.36Z"/><path class="cls-19" d="M232.07,195.27a14.68,14.68,0,0,1-1.45.32c-.49.07-1.14-.48-1.48-.33s-.37,1.64-.37,1.64,5.13.42,6.57,0C235.91,196.71,234,195.88,232.07,195.27Z"/><path class="cls-16" d="M220.91,193.3l-.12,2c0,.25-.21.88-.21,1.1,0,.86,4.07-.72,3.16-1.11-.08,0-.65-.48-.67-.78,0-.45,0-1.16,0-1.16Z"/><path class="cls-19" d="M223.73,195.27a14.68,14.68,0,0,1-1.45.32c-.49.07-1.13-.48-1.48-.33s-.4,1.64-.4,1.64,5.16.49,6.61,0C227.57,196.69,225.68,195.88,223.73,195.27Z"/><path class="cls-16" d="M222.16,157.25l3.59-5s.05-.13.1-.27c.18-.5.55-1.54.88-2.57h0c.11-.36.33-1,.54-1.6s.52-1.52.53-1.66a.79.79,0,0,0-.05-.13,11.09,11.09,0,0,1-.37-1.51c0-.22-.08-.77.19-.77.42,0,.22.55.41.89a7.77,7.77,0,0,0,.3-1.14l.07-1.07c0-.08-.08-.67.22-.67h0c.27,0,.26.65.37,1.71,0-.13.07-.27.1-.41a4.46,4.46,0,0,1,.09-.56c0-.29,0-.76.29-.71.16,0,.15.67.15.67s0,.77,0,.91c0-.23.16-1.21.41-1.21s.22.26.21.47-.13,1.19-.14,1.31c.1-.16.21-1.1.31-1.1.4,0,.25,1.34.11,1.69a.84.84,0,0,0-.05.18,3.27,3.27,0,0,1-.34,1c-.25.43-.6,1.11-.65,1.21s-.16,1-.31,1.94c-.06.42-.13.87-.21,1.34h0c0,.1-.09.42-.37,1.63a12.68,12.68,0,0,1-.45,1.75c-.17.3-4,5.56-4.2,5.78l-.1.13Z"/><path class="cls-18" d="M228.84,145.52s-.3-.74-.81-.74a.57.57,0,0,1,.53.09A1,1,0,0,1,228.84,145.52Z"/><path class="cls-16" d="M221.29,144.08l-.46,2.93s1.76,1.41,2.79,1.11c.86-.25.27-1.37.27-1.37a7.33,7.33,0,0,1-.32-2.38C223.71,143.55,221.29,144.08,221.29,144.08Z"/><path class="cls-12" d="M221.62,145a7.31,7.31,0,0,0,2,.56,3.58,3.58,0,0,1-.05-1.16c.06-.38-.42-.47-.95-.46-.7.06-1.33.17-1.33.17l-.09.57A1.67,1.67,0,0,0,221.62,145Z"/><path class="cls-16" d="M219.07,140.71c-.07,0,.7,3.27,1.89,3.83s3,.27,3.29-.61-1-4.3-2.65-4.73S219.07,140.71,219.07,140.71Z"/><path class="cls-13" d="M220.45,137.71a3.78,3.78,0,0,0-1.54,1.7,2.42,2.42,0,0,0-1.24,1.9,2.68,2.68,0,0,0,2,3,1.83,1.83,0,0,1,1.39,1.14l.14-.85a3.4,3.4,0,0,0-.67-1.12c-.4-.37.19-.91.24-1.36s-.21-1-.16-1.56a3.87,3.87,0,0,1,1.33-1.26C223.07,138.91,221.67,137,220.45,137.71Z"/><path class="cls-16" d="M221,142.73c.16.38.09.75-.14.84s-.55-.16-.7-.53-.1-.75.14-.84S220.8,142.35,221,142.73Z"/><path class="cls-10" d="M225.38,157.33l6.93-1.13s-.79-2-1.07-2-5.24,2.16-5.24,2.16l-.39.79Z"/><path class="cls-22" d="M221.84,162.08a22.86,22.86,0,0,0-.41,5.87c.28,2.53.3,11.52.3,11.52l-1.07,14.39,2.55.06s3-14.38,3-14,1-10.13,1-10.13l-3.6-8Z"/><path class="cls-13" d="M222.51,161.92s-.45,3,.11,4.33,4.83,14.25,4.89,15.31S229,194.27,229,194.27l3-.08.64-13-1.34-16.29-1.31-4.12Z"/><path class="cls-16" d="M220.83,147a2.63,2.63,0,0,0,1.41.42,4.87,4.87,0,0,0,1.65-.68l-.14-.46s-1.76-.26-1.8-.23S220.83,147,220.83,147Z"/><path class="cls-10" d="M228.62,154.12s2.62,2.47,3.8,2,1.67-1.86-1.21-4C228.63,150.31,228.62,154.12,228.62,154.12Z"/><path class="cls-11" d="M230.39,157.17c-.39-2.11-3.21-8.7-3.43-9.91-.11-.59-1.63-.61-3.08-.53s-3,.28-3,.28a4.64,4.64,0,0,0-2,.78c-.6.56-.75,2.1.1,5,.68,2.32,1.52,3.59,1.93,5.27.09.57.16,1.13.25,1.78.16,2.52,0,5.85,0,5.85s7.38,1.53,10.13-.79C231.29,164.93,230.79,159.34,230.39,157.17Z"/><path class="cls-17" d="M232.27,152.62s-2.89,2.39-3.06,2.39-4.13-3-5.06-5.39a2.13,2.13,0,0,1,1.8-2.84c.85,0,1.23.23,2.92,1.65A21.64,21.64,0,0,1,232.27,152.62Z"/><path class="cls-16" d="M296.84,186.39l.12,2.21a11.48,11.48,0,0,1,.23,1.23c0,.95-4.24-.81-3.29-1.24.09,0,.54-.33.57-.65,0-.5.15-1.52.15-1.52Z"/><path class="cls-14" d="M293.86,188.6s1,.29,1.51.37,1.18-.55,1.54-.38.38,1.83.38,1.83-5.34.47-6.84,0C289.86,190.21,291.83,189.28,293.86,188.6Z"/><path class="cls-16" d="M303.9,186.28s.12,2.2.12,2.21a11.79,11.79,0,0,1,.23,1.22c0,1-4.24-.81-3.29-1.23.09,0,.67-.55.7-.87,0-.5,0-1.3,0-1.3Z"/><path class="cls-14" d="M301,188.47a15,15,0,0,0,1.51.36c.51.08,1.18-.54,1.54-.37s.41,1.83.41,1.83a67.78,67.78,0,0,1-6.87,0C296.94,190.18,298.94,189.15,301,188.47Z"/><path class="cls-11" d="M302.64,151.28a27.1,27.1,0,0,1,.43,6.53c-.3,2.82-.32,12.83-.32,12.83l1.35,16-2.88.07s-3.15-16-3.09-15.61-1.05-11.27-1.05-11.27l3.75-8.93Z"/><path class="cls-17" d="M301.64,148.88s3.25,3.42,2,7.17c-.49,1.5-5,15.87-5.08,17s-1.53,14.15-1.53,14.15l-3.09-.09-.66-14.43.88-19.45,1.87-3.28Z"/><path class="cls-18" d="M281.88,137.72a28,28,0,0,1,3.38-2.88,11.11,11.11,0,0,1,1.95-1.38c.83-.28,2.25-1.05,4.3,2.07,1.47,2.22,10.75,13.76,12.27,14.15l-9.94,4.76c-.28-2.28-5.19-6.57-5.9-7.37C286.36,145.28,280.87,138.84,281.88,137.72Z"/><path class="cls-16" d="M282.34,132.88l3.1,1.82s.08,2.64-.93,3.33c-.85.57-1.49-.81-1.49-.81a9.46,9.46,0,0,0-2-2.09C280.11,134.63,282.34,132.88,282.34,132.88Z"/><path class="cls-18" d="M282.86,134.05a6.67,6.67,0,0,1-.8,2,5.11,5.11,0,0,0-1.07-.92c-.4-.23-.15-.73.25-1.19s1.1-1.06,1.1-1.06l.6.35A3.09,3.09,0,0,1,282.86,134.05Z"/><path class="cls-16" d="M280.73,128.34c0-.07,2.59,3.1,2.28,4.59s-1.85,2.84-2.92,2.47-3.39-4.14-2.6-6S280.73,128.34,280.73,128.34Z"/><path class="cls-13" d="M277.94,127.34a4.8,4.8,0,0,1,4.27-.09,3.66,3.66,0,0,1,1.52,4.4,2.15,2.15,0,0,0,.08,2.09l-.88-.51a4.26,4.26,0,0,1-.59-1.45c-.06-.64-1-.52-1.46-.82s-.8-1-1.36-1.32a4.48,4.48,0,0,0-2.14.22C276.18,130.53,276.35,128.22,277.94,127.34Z"/><path class="cls-16" d="M281.6,131.5c0,.47.22.86.5.87s.53-.38.53-.85-.21-.87-.5-.87S281.61,131,281.6,131.5Z"/><path class="cls-3" d="M279,134l1.35-1a.75.75,0,0,1-.22,1C279.41,134.58,279,134,279,134Z"/><path class="cls-10" d="M275.61,154.07a13.24,13.24,0,0,1,.95-1.74,4.36,4.36,0,0,1,.69-.6c2.25-1.31,8.1-4.7,8.32-5s4.27-7,4.27-7l-3.59-.81-3.5,6.19-5.86,4.34s-1.11.87-1.71,1.27a4.84,4.84,0,0,1-.86.39,5.42,5.42,0,0,0-1.08.53c-.14.13-.44.4-.61.57s-.38.36-.47.46a1.19,1.19,0,0,1-.31.2.2.2,0,0,0,0,.38,1,1,0,0,0,.55-.12c.4-.19.89-.7.92-.64s-.48,1.16-.53,1.29a16.08,16.08,0,0,0-.65,1.68c0,.29.14.35.27.25s1-1.79,1-1.79.12-.22.17-.09-.79,1.67-.87,1.92,0,.46.22.38a8,8,0,0,0,1.07-1.82s.1-.21.17-.14-.66,1.38-.67,1.53a.2.2,0,0,0,.33.17,9,9,0,0,0,.92-1.67s.09-.11.12,0-.52,1.23-.48,1.4a.14.14,0,0,0,.16.12C274.89,155.77,275.27,154.57,275.61,154.07Z"/><path class="cls-11" d="M288.85,143.33a20,20,0,0,1-1.91-.72c-.5-.23-2.69-1.32-2.69-1.32a47.53,47.53,0,0,1,1.58-5.41c2.34-5.25,5-1.63,5.36-.78C292,137,288.85,143.33,288.85,143.33Z"/><path class="cls-3" d="M207.28,129.57l1.11-.83a.62.62,0,0,1-.19.83C207.62,130,207.28,129.57,207.28,129.57Z"/><path class="cls-22" d="M337.75,190.3H79.53a.68.68,0,0,0-.58.75h0a.67.67,0,0,0,.58.74H337.75a.67.67,0,0,0,.59-.74h0A.68.68,0,0,0,337.75,190.3Z"/><path class="cls-13" d="M162.47,30.91c.54-1.29,1.09-2.59,2.48-3.24a3.13,3.13,0,0,1,3.31.42c2.84,2.14.37,4.49,3.6,8.54,1,1.26,2.22,2.28,2.82,3.75.84,2.07-.16,3.06-1.77,4-7.69,4.73-11.73-5-11.58-7.21A35.84,35.84,0,0,1,162.47,30.91Z"/><path class="cls-16" d="M154.49,56.09c.32-.05,1.11-.62,1.39-.67l.88-.14c.24-.91,1.48-5.86,1.61-7.32s1.27-8.38,1.27-8.38l2.88.53s-1.2,5.23-1.53,7.77c-.28,2.19-2.68,7.09-3,7.61v0c0,.77-.42.52-.42.52l-.6.15s-2.13.21-2.27.26S154.16,56.14,154.49,56.09Z"/><path class="cls-23" d="M162.15,35.6c-2,.69-3.2,6.23-3.2,6.23s3.2.89,4,.43c0,0,.93-4.12,1.26-4Z"/><path class="cls-16" d="M146.39,65.66a21.59,21.59,0,0,0-1,3.42c0,.09.11.53.1.63a5.77,5.77,0,0,1-4.59,2.19c.79-.77,1.94-1.49,2-1.74a29.1,29.1,0,0,0,.8-4.49C144.68,66.11,145.33,65.76,146.39,65.66Z"/><path class="cls-5" d="M164.12,47.27,166.87,55l-6.07,1.14c-1.66.3-10.9.7-11.13.87s-2.09,6.29-2.94,9.7a8.08,8.08,0,0,1-3.5-.35c.47-4.87,2.19-12.59,2.74-13.43C146.87,51.58,164.12,47.27,164.12,47.27Z"/><path class="cls-16" d="M153.37,69.06a20.82,20.82,0,0,0-.32,3.54c0,.09.21.5.22.6a5.77,5.77,0,0,1-4.1,3,22.94,22.94,0,0,0,1.63-2.08,29,29,0,0,0-.06-4.56C151.77,69.82,152.34,69.36,153.37,69.06Z"/><path class="cls-7" d="M167.34,47.67l1.06,1.82A5.23,5.23,0,0,1,165.78,57h-.05c-1.56.61-10.56,2.74-10.76,2.95S154.1,66.54,153.9,70a8.07,8.07,0,0,1-3.51.32c-.44-4.87-.2-12.78.18-13.7C151.2,55.14,167.34,47.67,167.34,47.67Z"/><path class="cls-13" d="M152.91,72.65c.24-.26,1.12,1.19,1.34,1.5a.7.7,0,0,1,.15.67c-.08.15-4.72,2.88-5.85,3.07a.57.57,0,0,1-.34-.09c-.44-.39,1.59-3.28,2.51-3.66A4.44,4.44,0,0,0,152.91,72.65Z"/><path class="cls-13" d="M145.27,69.13c.28-.22.88,1.38,1,1.73a.68.68,0,0,1,0,.68c-.1.13-5.17,1.94-6.32,1.92a.51.51,0,0,1-.31-.16c-.37-.46,2.18-2.92,3.14-3.12A4.37,4.37,0,0,0,145.27,69.13Z"/><path class="cls-24" d="M164.08,35.59h0a.88.88,0,0,1-.2,0,3.53,3.53,0,0,0-1.85.1c-.79.33-2,3.42-1.93,6.58,0,.49.06.92.09,1.22.19,2.4.88,6.89.92,6.91.93.6,6.57-1.73,6.95-2.24s.62-6.73.81-7l.37-5.41A41.18,41.18,0,0,0,164.08,35.59Z"/><path class="cls-16" d="M166.37,33.6a14.32,14.32,0,0,0-.3,2.61c.08.74-.27,3.13-1.84,3.14s-.3-3-.15-3.76a27,27,0,0,0,.18-3Z"/><path class="cls-18" d="M164.23,33.74c0-.61,0-1.12,0-1.12l2.11,1s-.08.38-.15.87A1.85,1.85,0,0,1,164.23,33.74Z"/><path class="cls-16" d="M167.13,28.42a2.62,2.62,0,0,1,1.11,1.42c.29,1,0,3.48-2.13,4.09s-3-1.38-2.57-2.94S164.91,27.47,167.13,28.42Z"/><path class="cls-16" d="M163.28,30.39c0,.42.27.74.51.71s.41-.38.37-.8-.27-.73-.51-.71S163.24,30,163.28,30.39Z"/><path class="cls-13" d="M166.89,28.29s.38,2.8,1.28,3.31.53,1.75.53,1.75.82-2.89.1-3.82A4,4,0,0,0,166.89,28.29Z"/><path class="cls-16" d="M167.64,32c-.25.37-.25.8,0,1s.64,0,.89-.36a.71.71,0,0,0,0-1C168.28,31.47,167.88,31.64,167.64,32Z"/><path class="cls-3" d="M164.59,32.16l1.47.37a.66.66,0,0,1-.83.41C164.44,32.77,164.59,32.16,164.59,32.16Z"/><path class="cls-16" d="M178.4,55.53c0-.07-.08-.07-.14-.07a14.72,14.72,0,0,1-1.75-.13l-.28-.07a.72.72,0,0,0-.48,0,1.18,1.18,0,0,1-.27,0c-.29,0-1.13-.29-1.55-.36a.27.27,0,0,1-.21-.19c-.42-1.67-1.32-5.42-1.44-6.66-.15-1.57-1.24-8.69-1.24-8.69l-2.92.82s1.2,5.25,1.53,7.79c.26,2,2.23,6.14,2.84,7.34a1.21,1.21,0,0,0,1.13.93.38.38,0,0,1,.23.13,1.89,1.89,0,0,0,.37.32.67.67,0,0,1,.25.25,6.53,6.53,0,0,1,.35.56c.07.12.15.16.25.13s.17-.11.17-.26a1.18,1.18,0,0,0-.17-.57.32.32,0,0,1,0-.42,1.65,1.65,0,0,1,.22-.24.41.41,0,0,1,.3-.11,4.66,4.66,0,0,0,.63.12l.18,0,.1,0s.32,0,.43,0h.34a2.9,2.9,0,0,0,.34-.05.46.46,0,0,0,.27-.11s.06-.06,0-.11,0-.06-.1-.07l-.43-.07.55,0a.47.47,0,0,0,.37-.16S178.43,55.6,178.4,55.53Z"/><path class="cls-24" d="M169.27,35.66c1.44-.26,2.63,6.17,2.63,6.17s-3.2.89-4,.43c0,0-.93-4.12-1.26-4Z"/><path class="cls-16" d="M132.22,139.81c.1-.27-1.23-.49-1.3-.77s1.68-.29,1.74-.54c.11-.44-1.91-.09-1.87-.3s2.11-.67,1.89-1-2.1.71-2.16.46,1.83-.83,1.8-1.37c0-.28-3.1,1.43-3.46,1.27s.38-1.49.1-1.69-1.1,2.72-1.3,2.82a45.43,45.43,0,0,1-5.85,2.85c-.18-.5-.57-1.17-.73-1.64-.83.6-1.44.89-2.3,1.43.62,1.56,1.5,3.27,1.94,3.47,1.32.59,6.42-3.64,7.44-4.37s1.6-.49,2.29-.71S132.13,140.09,132.22,139.81Z"/><path class="cls-14" d="M118.6,142.05s-1.14-5-.95-6.51,1.94-2.82,3.15-2.32,1.75,7.55,1.75,7.55Z"/></g></svg>